<?xml version="1.0" encoding="UTF-8"?>
<svg version="1.1" xmlns="http://www.w3.org/2000/svg" width="232" height="105">
<path d="M0 0 C6.58389785 3.89579754 11.97387166 8.68057918 13.98046875 16.171875 C14.702373 21.53907619 13.93424986 25.58842156 10.98046875 30.171875 C7.17789761 34.86916876 2.78133349 37.60656229 -3.01953125 39.171875 C-11.68096684 39.73500239 -18.33362327 36.32620935 -25.01953125 31.171875 C-25.50421875 31.64238281 -25.98890625 32.11289062 -26.48828125 32.59765625 C-34.72120445 40.2447753 -41.01942669 41.84065849 -52.3203125 41.58203125 C-59.43811248 40.79283484 -64.67300486 37.96443945 -69.51953125 32.734375 C-73.72340019 27.18479164 -74.45667339 22.44096677 -73.546875 15.6328125 C-72.53933177 10.93094411 -70.91864732 7.64598727 -67.08203125 4.66796875 C-60.73597264 0.57336108 -55.53302552 -0.4590291 -48.01953125 0.171875 C-42.59891606 1.91749684 -38.51588904 4.77666606 -34.01953125 8.171875 C-33.07078125 7.264375 -32.12203125 6.356875 -31.14453125 5.421875 C-22.4724056 -1.92679373 -10.69303694 -4.67406976 0 0 Z M-56.01953125 2.171875 C-56.01953125 2.501875 -56.01953125 2.831875 -56.01953125 3.171875 C-54.36953125 3.171875 -52.71953125 3.171875 -51.01953125 3.171875 C-51.01953125 2.841875 -51.01953125 2.511875 -51.01953125 2.171875 C-52.66953125 2.171875 -54.31953125 2.171875 -56.01953125 2.171875 Z M-14.01953125 5.171875 C-10.7225702 6.27086202 -9.61458222 6.04311944 -6.33203125 5.234375 C-5.52378906 5.03972656 -4.71554688 4.84507813 -3.8828125 4.64453125 C-3.26792969 4.48855469 -2.65304688 4.33257812 -2.01953125 4.171875 C-2.01953125 3.841875 -2.01953125 3.511875 -2.01953125 3.171875 C-3.45661215 3.11764553 -4.89428587 3.07897777 -6.33203125 3.046875 C-7.53279297 3.01207031 -7.53279297 3.01207031 -8.7578125 2.9765625 C-11.30341701 3.01370178 -11.30341701 3.01370178 -14.01953125 5.171875 Z M-44.01953125 5.171875 C-43.68953125 5.831875 -43.35953125 6.491875 -43.01953125 7.171875 C-42.35953125 6.841875 -41.69953125 6.511875 -41.01953125 6.171875 C-42.00953125 5.841875 -42.99953125 5.511875 -44.01953125 5.171875 Z M4.98046875 8.171875 C5.64046875 8.831875 6.30046875 9.491875 6.98046875 10.171875 C6.98046875 9.511875 6.98046875 8.851875 6.98046875 8.171875 C6.32046875 8.171875 5.66046875 8.171875 4.98046875 8.171875 Z M-63.01953125 11.171875 C-60.47250509 12.44538808 -59.59123675 11.97379425 -56.89453125 11.234375 C-56.17007813 11.03972656 -55.445625 10.84507813 -54.69921875 10.64453125 C-53.86777344 10.41056641 -53.86777344 10.41056641 -53.01953125 10.171875 C-57.82594049 7.69114765 -58.34656485 8.29620337 -63.01953125 11.171875 Z M-10.01953125 9.171875 C-10.01953125 9.501875 -10.01953125 9.831875 -10.01953125 10.171875 C-8.5829588 10.50918342 -7.14523032 10.84157091 -5.70703125 11.171875 C-4.90652344 11.3575 -4.10601562 11.543125 -3.28125 11.734375 C-0.91257187 12.26683323 -0.91257187 12.26683323 1.98046875 12.171875 C-2.12410739 9.18672872 -4.99698494 8.8764311 -10.01953125 9.171875 Z M-22.01953125 10.171875 C-23.08728349 12.13653913 -24.0850659 14.14042859 -25.01953125 16.171875 C-24.68953125 16.831875 -24.35953125 17.491875 -24.01953125 18.171875 C-22.69953125 16.191875 -21.37953125 14.211875 -20.01953125 12.171875 C-20.67953125 11.511875 -21.33953125 10.851875 -22.01953125 10.171875 Z M-65.01953125 16.171875 C-64.85336539 20.49218741 -64.67262604 22.53510758 -61.51953125 25.609375 C-57.13359817 27.56738084 -53.74566002 28.00340215 -49.01953125 27.171875 C-44.06560246 24.74164578 -41.74638174 21.78654505 -39.01953125 17.171875 C-43.01653799 13.0416347 -44.88308831 11.99794135 -50.64453125 11.859375 C-56.54237997 11.88069253 -60.03534534 13.10468367 -65.01953125 16.171875 Z M-16.01953125 14.171875 C-18.30942757 17.93556347 -18.30942757 17.93556347 -19.01953125 22.171875 C-15.2859486 25.52904741 -11.37385446 27.51960517 -6.33203125 27.671875 C-2.53765513 27.42284859 0.12829578 26.84578716 2.98046875 24.171875 C3.87254054 21.0761643 3.87254054 21.0761643 3.98046875 18.171875 C-1.69146534 13.44526326 -8.97668088 8.63820685 -16.01953125 14.171875 Z M-71.01953125 14.171875 C-70.01953125 16.171875 -70.01953125 16.171875 -70.01953125 16.171875 Z M-29.01953125 16.171875 C-30.02722645 17.9383407 -31.02544839 19.71021323 -32.01953125 21.484375 C-32.57640625 22.47050781 -33.13328125 23.45664062 -33.70703125 24.47265625 C-35.23817878 27.12129971 -35.23817878 27.12129971 -35.01953125 30.171875 C-34.03022215 28.78321177 -33.05350047 27.38557649 -32.08203125 25.984375 C-31.53675781 25.20707031 -30.99148437 24.42976563 -30.4296875 23.62890625 C-28.97390235 21.09237201 -28.4233969 19.0500568 -28.01953125 16.171875 C-28.34953125 16.171875 -28.67953125 16.171875 -29.01953125 16.171875 Z M9.98046875 16.171875 C10.98046875 18.171875 10.98046875 18.171875 10.98046875 18.171875 Z M-26.01953125 18.171875 C-25.01953125 20.171875 -25.01953125 20.171875 -25.01953125 20.171875 Z M-72.01953125 19.171875 C-71.01953125 21.171875 -71.01953125 21.171875 -71.01953125 21.171875 Z M-27.01953125 20.171875 C-26.01953125 22.171875 -26.01953125 22.171875 -26.01953125 22.171875 Z M-21.01953125 24.171875 C-17.66701018 28.22283796 -13.99047052 29.84301005 -9.01953125 31.171875 C-6.18417673 31.42702036 -6.18417673 31.42702036 -4.01953125 31.171875 C-7.25138891 29.42128543 -10.6064967 28.16917464 -14.046875 26.90234375 C-16.38882018 26.0351284 -18.70590869 25.11178417 -21.01953125 24.171875 Z M-43.01953125 25.171875 C-43.34953125 25.831875 -43.67953125 26.491875 -44.01953125 27.171875 C-43.35953125 27.171875 -42.69953125 27.171875 -42.01953125 27.171875 C-42.34953125 26.511875 -42.67953125 25.851875 -43.01953125 25.171875 Z M-64.01953125 27.171875 C-64.01953125 27.831875 -64.01953125 28.491875 -64.01953125 29.171875 C-59.4673767 31.83655084 -56.28896485 32.73645717 -51.01953125 32.171875 C-46.71109201 30.58959898 -46.71109201 30.58959898 -44.01953125 27.171875 C-44.55578125 27.33429687 -45.09203125 27.49671875 -45.64453125 27.6640625 C-48.48620771 28.2716578 -51.11441832 28.30413778 -54.01953125 28.296875 C-55.05078125 28.29945312 -56.08203125 28.30203125 -57.14453125 28.3046875 C-59.61610134 28.19051171 -61.66382705 27.88538156 -64.01953125 27.171875 Z M-42.01953125 28.171875 C-43.71041347 30.15144442 -45.37783597 32.15132696 -47.01953125 34.171875 C-44.39765631 33.12312502 -43.22581764 32.52256187 -41.76953125 30.046875 C-41.52203125 29.428125 -41.27453125 28.809375 -41.01953125 28.171875 C-41.34953125 28.171875 -41.67953125 28.171875 -42.01953125 28.171875 Z M-58.01953125 36.171875 C-58.01953125 36.501875 -58.01953125 36.831875 -58.01953125 37.171875 C-56.03953125 37.171875 -54.05953125 37.171875 -52.01953125 37.171875 C-52.01953125 36.841875 -52.01953125 36.511875 -52.01953125 36.171875 C-53.99953125 36.171875 -55.97953125 36.171875 -58.01953125 36.171875 Z " fill="#5D3B6C" transform="translate(142.01953125,14.828125)"/>
<path d="M0 0 C62.7 0 125.4 0 190 0 C190.33 0.66 190.66 1.32 191 2 C188.26975332 2.91008223 186.41568746 3.17048735 183.5859375 3.28125 C182.74289063 3.31863281 181.89984375 3.35601562 181.03125 3.39453125 C179.25261644 3.46515346 177.47397044 3.53546326 175.6953125 3.60546875 C174.43460937 3.66154297 174.43460937 3.66154297 173.1484375 3.71875 C171.99093994 3.76418945 171.99093994 3.76418945 170.81005859 3.81054688 C168.98006103 3.81005345 168.98006103 3.81005345 168 5 C166.04406241 5.14279658 164.08311379 5.21735941 162.12255859 5.26538086 C160.86389984 5.29889145 159.60524109 5.33240204 158.30844116 5.3669281 C157.29232821 5.39071942 157.29232821 5.39071942 156.25568771 5.41499138 C154.1364072 5.46512836 152.01740362 5.52193662 149.89834595 5.58070374 C143.87143941 5.74676607 137.84427699 5.90182107 131.81689453 6.04956055 C128.1326475 6.1403359 124.44872203 6.23994985 120.76485062 6.34482002 C119.36401783 6.38289441 117.96308834 6.41757575 116.5620842 6.4487133 C114.59245759 6.49262669 112.62311395 6.54871103 110.65380859 6.60522461 C109.53541595 6.63329697 108.41702332 6.66136932 107.26473999 6.69029236 C103.65886435 7.03236163 100.46967439 7.98502505 97 9 C93 9 93 9 90.18745422 8.02467346 C86.65211184 6.88816411 83.7092838 6.6913041 80.00073242 6.60522461 C78.99233307 6.57793526 78.99233307 6.57793526 77.96356201 6.5500946 C75.76098416 6.49243031 73.55833529 6.44749716 71.35546875 6.40234375 C69.81941881 6.36369733 68.28339261 6.32409658 66.74739075 6.28358459 C62.71859537 6.17924202 58.68963441 6.08503839 54.66052246 5.99383545 C48.19402689 5.84652869 41.72784644 5.68730321 35.26180458 5.52136421 C33.00112962 5.46535563 30.74037605 5.41584646 28.47953796 5.3669281 C27.1037847 5.33330662 25.72803669 5.29946954 24.35229492 5.26538086 C22.5441053 5.22446571 22.5441053 5.22446571 20.6993866 5.182724 C18 5 18 5 17 4 C14.51658199 3.78889481 12.05043287 3.62405205 9.5625 3.5 C2.26857585 3.13428793 2.26857585 3.13428793 0 2 C0 1.34 0 0.68 0 0 Z " fill="#090608" transform="translate(18,82)"/>
<path d="M0 0 C6.58389785 3.89579754 11.97387166 8.68057918 13.98046875 16.171875 C14.18212753 18.89426858 14.12453721 21.4345743 13.98046875 24.171875 C12.66046875 24.831875 11.34046875 25.491875 9.98046875 26.171875 C8.99046875 25.181875 8.99046875 25.181875 7.98046875 24.171875 C7.65046875 24.831875 7.32046875 25.491875 6.98046875 26.171875 C3.98046875 24.171875 3.98046875 24.171875 3.23046875 20.796875 C1.78775237 16.6129975 0.75153373 15.69116875 -3.078125 13.8203125 C-7.26203248 12.42287056 -10.91219316 12.8027623 -15.01953125 14.171875 C-16.25230252 16.03209572 -16.25230252 16.03209572 -17.20703125 18.234375 C-17.55121094 18.96785156 -17.89539063 19.70132813 -18.25 20.45703125 C-18.63091797 21.30587891 -18.63091797 21.30587891 -19.01953125 22.171875 C-18.35953125 22.501875 -17.69953125 22.831875 -17.01953125 23.171875 C-18.66953125 23.171875 -20.31953125 23.171875 -22.01953125 23.171875 C-22.51453125 24.656875 -22.51453125 24.656875 -23.01953125 26.171875 C-23.51453125 25.181875 -23.51453125 25.181875 -24.01953125 24.171875 C-23.52453125 22.686875 -23.52453125 22.686875 -23.01953125 21.171875 C-23.67953125 21.171875 -24.33953125 21.171875 -25.01953125 21.171875 C-24.37408696 17.68647583 -22.91818728 15.14368443 -21.01953125 12.171875 C-21.59703125 12.97625 -22.17453125 13.780625 -22.76953125 14.609375 C-25.08563656 17.2471616 -25.74441757 17.60720023 -29.01953125 18.171875 C-29.34953125 18.831875 -29.67953125 19.491875 -30.01953125 20.171875 C-31.00953125 20.171875 -31.99953125 20.171875 -33.01953125 20.171875 C-33.01953125 19.511875 -33.01953125 18.851875 -33.01953125 18.171875 C-33.67953125 17.841875 -34.33953125 17.511875 -35.01953125 17.171875 C-34.35953125 17.171875 -33.69953125 17.171875 -33.01953125 17.171875 C-33.67953125 16.181875 -34.33953125 15.191875 -35.01953125 14.171875 C-35.67953125 15.161875 -36.33953125 16.151875 -37.01953125 17.171875 C-39.149447 16.11915802 -41.25881006 15.04321755 -43.3515625 13.91796875 C-50.30878534 10.21670156 -50.30878534 10.21670156 -58.01953125 9.171875 C-60.17701025 10.12622299 -62.13583832 11.18899132 -64.125 12.45703125 C-66.01953125 13.171875 -66.01953125 13.171875 -68.2578125 12.29296875 C-68.83917969 11.92300781 -69.42054687 11.55304687 -70.01953125 11.171875 C-69.02953125 10.511875 -68.03953125 9.851875 -67.01953125 9.171875 C-67.67953125 8.841875 -68.33953125 8.511875 -69.01953125 8.171875 C-69.01953125 7.511875 -69.01953125 6.851875 -69.01953125 6.171875 C-67.375 4.91796875 -67.375 4.91796875 -65.20703125 3.609375 C-64.49933594 3.17496094 -63.79164062 2.74054687 -63.0625 2.29296875 C-58.19193289 -0.37978987 -53.43504775 -0.28286303 -48.01953125 0.171875 C-42.59891606 1.91749684 -38.51588904 4.77666606 -34.01953125 8.171875 C-33.07078125 7.264375 -32.12203125 6.356875 -31.14453125 5.421875 C-22.4724056 -1.92679373 -10.69303694 -4.67406976 0 0 Z M-56.01953125 2.171875 C-56.01953125 2.501875 -56.01953125 2.831875 -56.01953125 3.171875 C-54.36953125 3.171875 -52.71953125 3.171875 -51.01953125 3.171875 C-51.01953125 2.841875 -51.01953125 2.511875 -51.01953125 2.171875 C-52.66953125 2.171875 -54.31953125 2.171875 -56.01953125 2.171875 Z M-14.01953125 5.171875 C-10.7225702 6.27086202 -9.61458222 6.04311944 -6.33203125 5.234375 C-5.52378906 5.03972656 -4.71554688 4.84507813 -3.8828125 4.64453125 C-3.26792969 4.48855469 -2.65304688 4.33257812 -2.01953125 4.171875 C-2.01953125 3.841875 -2.01953125 3.511875 -2.01953125 3.171875 C-3.45661215 3.11764553 -4.89428587 3.07897777 -6.33203125 3.046875 C-7.53279297 3.01207031 -7.53279297 3.01207031 -8.7578125 2.9765625 C-11.30341701 3.01370178 -11.30341701 3.01370178 -14.01953125 5.171875 Z M-44.01953125 5.171875 C-43.68953125 5.831875 -43.35953125 6.491875 -43.01953125 7.171875 C-42.35953125 6.841875 -41.69953125 6.511875 -41.01953125 6.171875 C-42.00953125 5.841875 -42.99953125 5.511875 -44.01953125 5.171875 Z M4.98046875 8.171875 C5.64046875 8.831875 6.30046875 9.491875 6.98046875 10.171875 C6.98046875 9.511875 6.98046875 8.851875 6.98046875 8.171875 C6.32046875 8.171875 5.66046875 8.171875 4.98046875 8.171875 Z M-10.01953125 9.171875 C-10.01953125 9.501875 -10.01953125 9.831875 -10.01953125 10.171875 C-8.5829588 10.50918342 -7.14523032 10.84157091 -5.70703125 11.171875 C-4.90652344 11.3575 -4.10601562 11.543125 -3.28125 11.734375 C-0.91257187 12.26683323 -0.91257187 12.26683323 1.98046875 12.171875 C-2.12410739 9.18672872 -4.99698494 8.8764311 -10.01953125 9.171875 Z M9.98046875 16.171875 C10.98046875 18.171875 10.98046875 18.171875 10.98046875 18.171875 Z " fill="#5F5E86" transform="translate(142.01953125,14.828125)"/>
<path d="M0 0 C33 0 66 0 100 0 C100 0.66 100 1.32 100 2 C99.3702124 1.99476318 98.7404248 1.98952637 98.09155273 1.98413086 C95.20687885 1.96319862 92.32222102 1.9502885 89.4375 1.9375 C88.44685547 1.92912109 87.45621094 1.92074219 86.43554688 1.91210938 C81.17451301 1.89463086 76.18235335 2.07691602 71 3 C71 3.33 71 3.66 71 4 C66.05 4 61.1 4 56 4 C56 4.66 56 5.32 56 6 C50.60636763 5.88206288 45.21293153 5.75783819 39.81958008 5.62768555 C37.98335753 5.5842718 36.14709292 5.54260161 34.31079102 5.50268555 C31.67711689 5.44513831 29.04365579 5.38140002 26.41015625 5.31640625 C25.17109276 5.29133751 25.17109276 5.29133751 23.90699768 5.26576233 C18.11387171 5.11387171 18.11387171 5.11387171 17 4 C14.51658199 3.78889481 12.05043287 3.62405205 9.5625 3.5 C2.26857585 3.13428793 2.26857585 3.13428793 0 2 C0 1.34 0 0.68 0 0 Z " fill="#5F5D5E" transform="translate(18,82)"/>
<path d="M0 0 C2.59560819 2.48745785 4.12669134 4.71472284 5.0625 8.25 C6.0525 7.92 7.0425 7.59 8.0625 7.25 C9.0625 8.25 9.0625 8.25 9.16015625 10.09765625 C9.12760417 12.1484375 9.09505208 14.19921875 9.0625 16.25 C7.0825 17.24 7.0825 17.24 5.0625 18.25 C4.4025 17.59 3.7425 16.93 3.0625 16.25 C2.7325 16.91 2.4025 17.57 2.0625 18.25 C-0.9375 16.25 -0.9375 16.25 -1.6875 12.875 C-3.13021638 8.6911225 -4.16643502 7.76929375 -7.99609375 5.8984375 C-12.18000123 4.50099556 -15.83016191 4.8808873 -19.9375 6.25 C-21.17027127 8.11022072 -21.17027127 8.11022072 -22.125 10.3125 C-22.46917969 11.04597656 -22.81335938 11.77945313 -23.16796875 12.53515625 C-23.42191406 13.10105469 -23.67585938 13.66695312 -23.9375 14.25 C-23.2775 14.58 -22.6175 14.91 -21.9375 15.25 C-23.5875 15.25 -25.2375 15.25 -26.9375 15.25 C-27.2675 16.24 -27.5975 17.23 -27.9375 18.25 C-28.2675 17.59 -28.5975 16.93 -28.9375 16.25 C-28.6075 15.26 -28.2775 14.27 -27.9375 13.25 C-28.5975 13.25 -29.2575 13.25 -29.9375 13.25 C-29.28846 9.74518401 -27.81572891 7.25516626 -25.9375 4.25 C-25.6075 3.54875 -25.2775 2.8475 -24.9375 2.125 C-23.74728664 -0.10665004 -23.02959949 -1.28553035 -20.9375 -2.75 C-13.6277157 -4.26236917 -6.08491483 -4.9108545 0 0 Z M-14.9375 1.25 C-14.9375 1.58 -14.9375 1.91 -14.9375 2.25 C-13.50092755 2.58730842 -12.06319907 2.91969591 -10.625 3.25 C-9.82449219 3.435625 -9.02398437 3.62125 -8.19921875 3.8125 C-5.83054062 4.34495823 -5.83054062 4.34495823 -2.9375 4.25 C-7.04207614 1.26485372 -9.91495369 0.9545561 -14.9375 1.25 Z " fill="#5D527D" transform="translate(146.9375,22.75)"/>
<path d="M0 0 C0.99 0.33 1.98 0.66 3 1 C2.01 2.485 2.01 2.485 1 4 C5.0944064 4.32324261 8.17072406 3.68805988 12 2.375 C16.32518868 0.97029371 18.80201535 0.90100768 23 3 C23 3.33 23 3.66 23 4 C22.10796875 4.12117188 21.2159375 4.24234375 20.296875 4.3671875 C18.54117188 4.61855469 18.54117188 4.61855469 16.75 4.875 C15.58984375 5.03742187 14.4296875 5.19984375 13.234375 5.3671875 C10.41806687 5.91820431 8.44782443 6.55796482 6 8 C6.19921401 13.01310365 6.19921401 13.01310365 9 16.9375 C13.11420081 18.39461279 16.68507086 18.68490939 21 18 C25.5876054 15.7061973 27.51547076 13.3775039 30 9 C30.99 8.67 31.98 8.34 33 8 C34.66710346 6.50014391 34.66710346 6.50014391 36 5 C37 9.75 37 9.75 37 12 C37.66 12 38.32 12 39 12 C38.67 13.32 38.34 14.64 38 16 C37.01 16 36.02 16 35 16 C34.505 17.485 34.505 17.485 34 19 C33.67 19 33.34 19 33 19 C33 16.66666667 33 14.33333333 33 12 C31.948125 13.11375 31.948125 13.11375 30.875 14.25 C25.81387381 19.09107723 22.85461671 21.24151181 15.75 21.25 C13.83268494 21.18322783 11.91569747 21.10324118 10 21 C9.34 21 8.68 21 8 21 C7.67 21.99 7.34 22.98 7 24 C5.65835921 23.7018576 4.32676508 23.35858516 3 23 C2.13375 22.773125 1.2675 22.54625 0.375 22.3125 C-2 21 -2 21 -3.375 18.5 C-4.41993549 12.64836128 -4.11374987 7.22749974 -1.4375 1.875 C-0.7259375 0.946875 -0.7259375 0.946875 0 0 Z M-1 6 C0 8 0 8 0 8 Z M-2 11 C-1 13 -1 13 -1 13 Z " fill="#5A4C77" transform="translate(72,23)"/>
<path d="M0 0 C28.05 0 56.1 0 85 0 C85.495 0.99 85.495 0.99 86 2 C83.26975332 2.91008223 81.41568746 3.17048735 78.5859375 3.28125 C77.74289063 3.31863281 76.89984375 3.35601562 76.03125 3.39453125 C74.25261644 3.46515346 72.47397044 3.53546326 70.6953125 3.60546875 C69.85484375 3.64285156 69.014375 3.68023437 68.1484375 3.71875 C66.99093994 3.76418945 66.99093994 3.76418945 65.81005859 3.81054688 C63.98006103 3.81005345 63.98006103 3.81005345 63 5 C60.62661361 5.15971977 58.27881728 5.2592433 55.90234375 5.31640625 C55.19348526 5.33718735 54.48462677 5.35796844 53.75428772 5.37937927 C51.48212695 5.44494598 49.20984736 5.5037923 46.9375 5.5625 C45.40037817 5.60567849 43.8632685 5.64929255 42.32617188 5.69335938 C38.5509041 5.80063449 34.7755164 5.90188137 31 6 C31 5.34 31 4.68 31 4 C26.05 4 21.1 4 16 4 C16 3.67 16 3.34 16 3 C20.455 2.505 20.455 2.505 25 2 C16.75 1.67 8.5 1.34 0 1 C0 0.67 0 0.34 0 0 Z " fill="#211E21" transform="translate(123,82)"/>
<path d="M0 0 C5.23135532 3.82226445 9.82900574 7.30860422 11 14 C9.68 14.33 8.36 14.66 7 15 C6.7525 13.72125 6.505 12.4425 6.25 11.125 C5.50819324 7.87722283 5.50819324 7.87722283 3.1875 5.625 C2.465625 5.41875 1.74375 5.2125 1 5 C0.278125 4.62875 -0.44375 4.2575 -1.1875 3.875 C-8.45538915 1.61387893 -14.15784204 3.23912924 -21 6 C-21.66 5.67 -22.32 5.34 -23 5 C-23 4.34 -23 3.68 -23 3 C-21.68 2.34 -20.36 1.68 -19 1 C-19.54269531 1.2165625 -20.08539063 1.433125 -20.64453125 1.65625 C-21.35996094 1.9346875 -22.07539062 2.213125 -22.8125 2.5 C-23.87404297 2.91765625 -23.87404297 2.91765625 -24.95703125 3.34375 C-27 4 -27 4 -30 4 C-22.42391094 -4.46739365 -9.87004321 -5.84819489 0 0 Z " fill="#626C93" transform="translate(144,16)"/>
<path d="M0 0 C2.66666667 0.66666667 5.33333333 1.33333333 8 2 C8 1.34 8 0.68 8 0 C10.08519216 0.2561291 12.1681505 0.53048735 14.25 0.8125 C15.41015625 0.96332031 16.5703125 1.11414062 17.765625 1.26953125 C22.43413765 2.32389341 24.71975895 4.71975895 28 8 C28.66 8.33 29.32 8.66 30 9 C29.67 9.66 29.34 10.32 29 11 C19.89488408 11.59038936 12.56513926 11.53442135 5 6 C3.02551787 4.08819984 1.5822716 2.26792263 0 0 Z M13 6 C13 6.33 13 6.66 13 7 C14.98 7 16.96 7 19 7 C19 6.67 19 6.34 19 6 C17.02 6 15.04 6 13 6 Z " fill="#582B60" transform="translate(71,45)"/>
<path d="M0 0 C17.49 0 34.98 0 53 0 C53 0.66 53 1.32 53 2 C52.3702124 1.99476318 51.7404248 1.98952637 51.09155273 1.98413086 C48.20687885 1.96319862 45.32222102 1.9502885 42.4375 1.9375 C41.44685547 1.92912109 40.45621094 1.92074219 39.43554688 1.91210938 C34.17451301 1.89463086 29.18235335 2.07691602 24 3 C24 3.33 24 3.66 24 4 C19.05 4 14.1 4 9 4 C9 4.66 9 5.32 9 6 C4.05 5.67 -0.9 5.34 -6 5 C-4 4 -2 3 0 2 C0 1.34 0 0.68 0 0 Z " fill="#605E5D" transform="translate(65,82)"/>
<path d="M0 0 C2.25 0.125 2.25 0.125 5 1 C7.3125 4.0625 7.3125 4.0625 9 7 C10.32 4.69 11.64 2.38 13 0 C14.32 0 15.64 0 17 0 C17 4.29 17 8.58 17 13 C15.35 13 13.7 13 12 13 C12 11.35 12 9.7 12 8 C11.54625 8.825 11.0925 9.65 10.625 10.5 C10.08875 11.325 9.5525 12.15 9 13 C8.34 13 7.68 13 7 13 C6.34 11.68 5.68 10.36 5 9 C5 10.32 5 11.64 5 13 C3.35 13 1.7 13 0 13 C0.14107747 11.54119891 0.28802415 10.08296449 0.4375 8.625 C0.51871094 7.81289062 0.59992188 7.00078125 0.68359375 6.1640625 C1 4 1 4 2 2 C1.34 2 0.68 2 0 2 C0 1.34 0 0.68 0 0 Z " fill="#1B191C" transform="translate(70,63)"/>
<path d="M0 0 C28.05 0 56.1 0 85 0 C85.495 0.99 85.495 0.99 86 2 C83.11734851 2.96088383 81.32337729 3.11670941 78.33203125 3.09765625 C77.43935547 3.09443359 76.54667969 3.09121094 75.62695312 3.08789062 C74.23379883 3.07532227 74.23379883 3.07532227 72.8125 3.0625 C71.87212891 3.05798828 70.93175781 3.05347656 69.96289062 3.04882812 C67.64186288 3.03704626 65.32096356 3.02059558 63 3 C63 2.67 63 2.34 63 2 C42.21 1.67 21.42 1.34 0 1 C0 0.67 0 0.34 0 0 Z " fill="#9A9998" transform="translate(123,82)"/>
<path d="M0 0 C4.45903659 0.37353186 6.82786923 2.15371674 10.1875 5 C13.40595972 7.78631875 13.40595972 7.78631875 17 10 C16.67 10.66 16.34 11.32 16 12 C17.32 12.33 18.64 12.66 20 13 C19.525625 13.45375 19.05125 13.9075 18.5625 14.375 C16.90972192 15.93258204 16.90972192 15.93258204 16 18 C15.01 18 14.02 18 13 18 C13 17.34 13 16.68 13 16 C12.34 15.67 11.68 15.34 11 15 C11.66 15 12.32 15 13 15 C12.34 14.01 11.68 13.02 11 12 C10.01 13.485 10.01 13.485 9 15 C6.53199953 13.84826645 4.95216435 12.95216435 3 11 C4.65 9.68 6.3 8.36 8 7 C7.071875 6.38125 6.14375 5.7625 5.1875 5.125 C3.125 3.75 1.0625 2.375 -1 1 C-0.67 0.67 -0.34 0.34 0 0 Z " fill="#5E557E" transform="translate(96,17)"/>
<path d="M0 0 C9.54458989 -0.28072323 9.54458989 -0.28072323 13 2 C14.0625 4.8125 14.0625 4.8125 14 8 C12.0625 10.875 12.0625 10.875 9 13 C6.19176458 13.40931845 3.86084074 13.24244413 1 13 C0.67 8.71 0.34 4.42 0 0 Z M4 2 C4 4.97 4 7.94 4 11 C5.98 10.67 7.96 10.34 10 10 C11.00217064 6.41672247 11.00217064 6.41672247 10 3 C6.97065509 2.34227572 6.97065509 2.34227572 4 2 Z " fill="#0E0D10" transform="translate(116,63)"/>
<path d="M0 0 C8.24615385 -0.61538462 8.24615385 -0.61538462 12.0625 2.5 C12.701875 3.325 13.34125 4.15 14 5 C12.55793991 10.527897 12.55793991 10.527897 10.375 12.375 C6.86374395 13.29901475 3.6264179 13.1208806 0 13 C0 8.71 0 4.42 0 0 Z M4 2 C4 4.97 4 7.94 4 11 C5.98 10.34 7.96 9.68 10 9 C10 7.02 10 5.04 10 3 C7.03 2.505 7.03 2.505 4 2 Z " fill="#0B0A0C" transform="translate(11,63)"/>
<path d="M0 0 C5.40049736 0.31767632 7.52337065 3.19996327 11 7 C11.33 5.35 11.66 3.7 12 2 C11.34 2 10.68 2 10 2 C10 1.34 10 0.68 10 0 C11.65 0 13.3 0 15 0 C14.67 4.29 14.34 8.58 14 13 C8.85139294 11.71284823 8.13538553 10.09341999 5 6 C5 8.31 5 10.62 5 13 C3.68 13 2.36 13 1 13 C1.33 9.37 1.66 5.74 2 2 C1.34 2 0.68 2 0 2 C0 1.34 0 0.68 0 0 Z " fill="#100F10" transform="translate(176,63)"/>
<path d="M0 0 C6.12767526 1.22553505 6.48181521 2.27558042 10 7 C10 4.69 10 2.38 10 0 C11.65 0 13.3 0 15 0 C15 0.66 15 1.32 15 2 C14.34 2 13.68 2 13 2 C13 5.63 13 9.26 13 13 C9.09567131 11.04783565 6.96160056 9.12613393 4 6 C3.67 7.65 3.34 9.3 3 11 C3.66 11 4.32 11 5 11 C5 11.66 5 12.32 5 13 C3.35 13 1.7 13 0 13 C0 8.71 0 4.42 0 0 Z " fill="#0D0B0D" transform="translate(39,63)"/>
<path d="M0 0 C1.258125 -0.04125 2.51625 -0.0825 3.8125 -0.125 C4.52019531 -0.14820313 5.22789062 -0.17140625 5.95703125 -0.1953125 C8 0 8 0 11 2 C10.34 3.98 9.68 5.96 9 8 C9.7425 8.680625 9.7425 8.680625 10.5 9.375 C12 11 12 11 12 13 C9.11424181 12.60196439 8.17810487 12.20990931 6.25 9.9375 C5.8375 9.298125 5.425 8.65875 5 8 C5 9.65 5 11.3 5 13 C3.35 13 1.7 13 0 13 C0.17402344 12.43796875 0.34804687 11.8759375 0.52734375 11.296875 C1.05053346 8.75443245 0.90204838 6.81547663 0.5625 4.25 C0.46066406 3.45078125 0.35882813 2.6515625 0.25390625 1.828125 C0.17011719 1.22484375 0.08632812 0.6215625 0 0 Z M5 2 C4.67 3.32 4.34 4.64 4 6 C5.32 5.34 6.64 4.68 8 4 C7.01 3.34 6.02 2.68 5 2 Z " fill="#0D0C0D" transform="translate(205,63)"/>
<path d="M0 0 C0.33 0.66 0.66 1.32 1 2 C1.99 1.67 2.98 1.34 4 1 C4.33 1.66 4.66 2.32 5 3 C6.32 3 7.64 3 9 3 C9 3.66 9 4.32 9 5 C3.37176607 8.17227731 -1.45509882 10.16175611 -8 10 C-11.0625 9.0625 -11.0625 9.0625 -13 8 C-12 6 -12 6 -9 5 C-6.5 4.5 -6.5 4.5 -4 4 C-3.01 3.67 -2.02 3.34 -1 3 C-0.67 2.01 -0.34 1.02 0 0 Z " fill="#582A61" transform="translate(141,44)"/>
<path d="M0 0 C3.63 0 7.26 0 11 0 C11 4.29 11 8.58 11 13 C7.7 13 4.4 13 1 13 C1.33 9.37 1.66 5.74 2 2 C1.34 2 0.68 2 0 2 C0 1.34 0 0.68 0 0 Z M5 2 C5 2.99 5 3.98 5 5 C6.32 4.67 7.64 4.34 9 4 C7.68 3.34 6.36 2.68 5 2 Z M5 7 C5 8.32 5 9.64 5 11 C6.32 11 7.64 11 9 11 C8.67 9.68 8.34 8.36 8 7 C7.01 7 6.02 7 5 7 Z " fill="#080508" transform="translate(192,63)"/>
<path d="M0 0 C3.3 0 6.6 0 10 0 C9.67 2.97 9.34 5.94 9 9 C9.66 9 10.32 9 11 9 C10.67 10.32 10.34 11.64 10 13 C6.7 13 3.4 13 0 13 C0 12.34 0 11.68 0 11 C0.66 11 1.32 11 2 11 C2 8.03 2 5.06 2 2 C1.34 2 0.68 2 0 2 C0 1.34 0 0.68 0 0 Z M5 2 C5 2.99 5 3.98 5 5 C5.99 4.67 6.98 4.34 8 4 C7.01 3.34 6.02 2.68 5 2 Z M5 7 C5 8.32 5 9.64 5 11 C6.32 10.67 7.64 10.34 9 10 C8.34 9.67 7.68 9.34 7 9 C7 8.34 7 7.68 7 7 C6.34 7 5.68 7 5 7 Z " fill="#0B090B" transform="translate(131,63)"/>
<path d="M0 0 C3.95096978 -0.04939662 7.9018203 -0.08571755 11.85302734 -0.10986328 C13.8591136 -0.12488107 15.86511324 -0.15028981 17.87109375 -0.17578125 C19.12792969 -0.18222656 20.38476562 -0.18867187 21.6796875 -0.1953125 C22.84226074 -0.20578613 24.00483398 -0.21625977 25.20263672 -0.22705078 C28 0 28 0 30 2 C20.07657859 5.17549485 9.49721104 5.5586613 0 1 C0 0.67 0 0.34 0 0 Z " fill="#1E1B1F" transform="translate(37,83)"/>
<path d="M0 0 C1.55754223 2.59375835 2.97703944 5.14731103 4 8 C3.25 11 3.25 11 2 13 C2.66 13.33 3.32 13.66 4 14 C3.67 14.66 3.34 15.32 3 16 C-0.14737182 15.30058404 -3.02588876 14.23921302 -6 13 C-6 12.01 -6 11.02 -6 10 C-5.01 10.33 -4.02 10.66 -3 11 C-2.67 10.67 -2.34 10.34 -2 10 C-1.34 9.34 -0.68 8.68 0 8 C-1.98 8 -3.96 8 -6 8 C-6 5.69 -6 3.38 -6 1 C-3 0 -3 0 0 0 Z " fill="#604A78" transform="translate(76,31)"/>
<path d="M0 0 C0.33 1.32 0.66 2.64 1 4 C0.34 4 -0.32 4 -1 4 C-1 3.34 -1 2.68 -1 2 C-3.31 2.33 -5.62 2.66 -8 3 C-7.89830839 5.94727535 -7.89830839 5.94727535 -7 9 C-4.53744315 10.45291273 -4.53744315 10.45291273 -2 11 C-2 10.34 -2 9.68 -2 9 C-2.66 9 -3.32 9 -4 9 C-4 8.34 -4 7.68 -4 7 C-2.02 7 -0.04 7 2 7 C1.34 8.98 0.68 10.96 0 13 C-2.85947552 13.23828963 -5.1975057 13.42704675 -8 13 C-10.5625 10.8125 -10.5625 10.8125 -12 8 C-12 4.8270449 -11.48654488 3.54268468 -9.375 1.1875 C-6.1686245 -0.41568775 -3.53249148 -0.20379759 0 0 Z " fill="#131315" transform="translate(173,63)"/>
<path d="M0 0 C0.99 0.33 1.98 0.66 3 1 C2.54625 1.391875 2.0925 1.78375 1.625 2.1875 C-0.27642919 4.30832487 -1.06204028 6.33042235 -2 9 C-1.34 9 -0.68 9 0 9 C-1.875 14.75 -1.875 14.75 -3 17 C-2.34 17.33 -1.68 17.66 -1 18 C-2.65 18 -4.3 18 -6 18 C-6.33 18.99 -6.66 19.98 -7 21 C-7.33 20.34 -7.66 19.68 -8 19 C-7.67 18.01 -7.34 17.02 -7 16 C-7.66 16 -8.32 16 -9 16 C-8.35096 12.49518401 -6.87822891 10.00516626 -5 7 C-4.67 6.29875 -4.34 5.5975 -4 4.875 C-2.92221791 2.85415857 -1.68675288 1.53341171 0 0 Z " fill="#55517A" transform="translate(126,20)"/>
<path d="M0 0 C0.66 0 1.32 0 2 0 C3.00508801 1.78881736 4.00392736 3.58114696 5 5.375 C5.8353125 6.87160156 5.8353125 6.87160156 6.6875 8.3984375 C8 11 8 11 8 13 C6.02 13 4.04 13 2 13 C2.33 11.68 2.66 10.36 3 9 C1.35 9 -0.3 9 -2 9 C-1.67 10.32 -1.34 11.64 -1 13 C-2.65 13 -4.3 13 -6 13 C-4.31326082 8.50202887 -2.18326108 4.27113698 0 0 Z M0 5 C0 5.66 0 6.32 0 7 C0.66 6.67 1.32 6.34 2 6 C1.34 5.67 0.68 5.34 0 5 Z " fill="#0B090C" transform="translate(61,63)"/>
<path d="M0 0 C0.94875 0.04125 1.8975 0.0825 2.875 0.125 C3.205 1.445 3.535 2.765 3.875 4.125 C3.215 4.125 2.555 4.125 1.875 4.125 C1.875 3.465 1.875 2.805 1.875 2.125 C-1.24285113 2.77144661 -1.24285113 2.77144661 -2.125 5.125 C-1.34125 5.08375 -0.5575 5.0425 0.25 5 C2.875 5.125 2.875 5.125 4.875 7.125 C4.50818342 10.05953261 4.01062754 10.98937246 1.875 13.125 C-1.25 13.25 -1.25 13.25 -4.125 13.125 C-4.455 11.805 -4.785 10.485 -5.125 9.125 C-2.155 9.62 -2.155 9.62 0.875 10.125 C1.205 9.465 1.535 8.805 1.875 8.125 C-1.095 7.63 -1.095 7.63 -4.125 7.125 C-4.75 4.75 -4.75 4.75 -5.125 2.125 C-3.125 0.125 -3.125 0.125 0 0 Z " fill="#100F11" transform="translate(148.125,62.875)"/>
<path d="M0 0 C0.33 1.32 0.66 2.64 1 4 C0.34 4 -0.32 4 -1 4 C-1 3.34 -1 2.68 -1 2 C-2.98 2.66 -4.96 3.32 -7 4 C-7 5.65 -7 7.3 -7 9 C-4.23735711 9.59732819 -1.83967231 10 1 10 C0.67 10.99 0.34 11.98 0 13 C-3.49186021 13.20145347 -6.19917389 13.34907805 -9.4375 11.9375 C-11 10 -11 10 -11.5 6.5 C-11 3 -11 3 -9.4375 1.0625 C-6.19917389 -0.34907805 -3.49186021 -0.20145347 0 0 Z " fill="#0A0909" transform="translate(107,63)"/>
<path d="M0 0 C2.84779933 -0.55717813 4.23204107 -0.71761898 7 0 C12.92757746 4.054781 17.14666278 7.93479181 19 15 C17.68 15.33 16.36 15.66 15 16 C14.7525 14.72125 14.505 13.4425 14.25 12.125 C13.52147955 8.96647697 13.52147955 8.96647697 11.375 6.6875 C10.199375 6.3471875 10.199375 6.3471875 9 6 C7.59912713 5.53577312 6.203602 5.0552338 4.8125 4.5625 C3.77029297 4.22412109 3.77029297 4.22412109 2.70703125 3.87890625 C1 3 1 3 0 0 Z " fill="#626488" transform="translate(136,15)"/>
<path d="M0 0 C1.875 0.3125 1.875 0.3125 4 1 C4.66 1.99 5.32 2.98 6 4 C6.6496875 3.01 6.6496875 3.01 7.3125 2 C7.869375 1.34 8.42625 0.68 9 0 C9.99 0 10.98 0 12 0 C11.731875 0.515625 11.46375 1.03125 11.1875 1.5625 C9.67650593 4.66401415 8.34427274 7.82262806 7 11 C7.66 11 8.32 11 9 11 C9 11.66 9 12.32 9 13 C7.02 13 5.04 13 3 13 C3.0928125 11.39125 3.0928125 11.39125 3.1875 9.75 C2.99047658 5.80953169 2.52063064 4.83570947 0 2 C0 1.34 0 0.68 0 0 Z " fill="#19191B" transform="translate(26,63)"/>
<path d="M0 0 C1.32 0 2.64 0 4 0 C4 4.29 4 8.58 4 13 C2.35 13 0.7 13 -1 13 C-1 11.35 -1 9.7 -1 8 C-1.66 8.66 -2.32 9.32 -3 10 C-3.66 10 -4.32 10 -5 10 C-3.66759388 6.41275276 -2.29060528 3.08350711 0 0 Z " fill="#1D1C1E" transform="translate(83,63)"/>
<path d="M0 0 C0.66 0.33 1.32 0.66 2 1 C2 1.66 2 2.32 2 3 C2.99 3 3.98 3 5 3 C4.3125 5.875 4.3125 5.875 3 9 C-0.29564692 10.90800611 -2.12388592 11 -6 11 C-4.54955729 6.89041233 -2.48889248 3.56741255 0 0 Z M0 3 C1 5 1 5 1 5 Z " fill="#59446F" transform="translate(115,32)"/>
<path d="M0 0 C0.99 0.66 1.98 1.32 3 2 C1.02 2.66 -0.96 3.32 -3 4 C-3 3.34 -3 2.68 -3 2 C-6.16666667 3.83333333 -6.16666667 3.83333333 -8 7 C-10.88575819 6.60196439 -11.82189513 6.20990931 -13.75 3.9375 C-14.1625 3.298125 -14.575 2.65875 -15 2 C-10.27905982 -0.51783476 -5.22788162 -0.60253551 0 0 Z " fill="#5E6892" transform="translate(94,15)"/>
<path d="M0 0 C2.31 0 4.62 0 7 0 C7 0.66 7 1.32 7 2 C6.34 2 5.68 2 5 2 C5.33 5.63 5.66 9.26 6 13 C4.02 13 2.04 13 0 13 C0 12.34 0 11.68 0 11 C0.66 11 1.32 11 2 11 C2 8.03 2 5.06 2 2 C1.34 2 0.68 2 0 2 C0 1.34 0 0.68 0 0 Z " fill="#111012" transform="translate(88,63)"/>
<path d="M0 0 C1.98 0 3.96 0 6 0 C6 4.29 6 8.58 6 13 C4.02 13 2.04 13 0 13 C0 12.34 0 11.68 0 11 C0.66 11 1.32 11 2 11 C2 8.03 2 5.06 2 2 C1.34 2 0.68 2 0 2 C0 1.34 0 0.68 0 0 Z " fill="#100D10" transform="translate(154,63)"/>
<path d="M0 0 C0.70189453 0.01353516 1.40378906 0.02707031 2.12695312 0.04101562 C3.85579829 0.07629818 5.58424765 0.13010417 7.3125 0.1875 C7.6425 0.8475 7.9725 1.5075 8.3125 2.1875 C4.54949626 3.44183458 1.04039091 3.29445422 -2.875 3.25 C-3.62458984 3.24548828 -4.37417969 3.24097656 -5.14648438 3.23632812 C-6.99352383 3.22456354 -8.84052213 3.20662865 -10.6875 3.1875 C-7.97885416 -0.76650025 -4.33266512 -0.15777212 0 0 Z " fill="#37363F" transform="translate(200.6875,81.8125)"/>
<path d="M0 0 C2.06242617 -0.02717692 4.12495703 -0.0464758 6.1875 -0.0625 C7.33605469 -0.07410156 8.48460937 -0.08570312 9.66796875 -0.09765625 C12.59300586 -0.01192832 15.16316291 0.32150977 18 1 C18 1.66 18 2.32 18 3 C15.37493198 3.02690844 12.75013827 3.04679404 10.125 3.0625 C9.37863281 3.07087891 8.63226563 3.07925781 7.86328125 3.08789062 C2.2265625 3.11328125 2.2265625 3.11328125 0 2 C0 1.34 0 0.68 0 0 Z " fill="#2C272D" transform="translate(18,82)"/>
<path d="M0 0 C-1 3 -1 3 -2.68359375 4.17578125 C-5.58439692 5.20793887 -7.98802778 5.2294073 -11.0625 5.1875 C-12.10535156 5.18105469 -13.14820312 5.17460938 -14.22265625 5.16796875 C-17 5 -17 5 -20 4 C-19.67 3.01 -19.34 2.02 -19 1 C-18.4328125 1.16113281 -17.865625 1.32226562 -17.28125 1.48828125 C-14.95465821 2.01017085 -12.881395 2.16711134 -10.5 2.1875 C-9.37078125 2.20876953 -9.37078125 2.20876953 -8.21875 2.23046875 C-5.14921685 1.9116264 -3.04116654 0 0 0 Z " fill="#523164" transform="translate(99,39)"/>
<path d="M0 0 C7.59 0.33 15.18 0.66 23 1 C23 1.66 23 2.32 23 3 C16.73 3 10.46 3 4 3 C4 2.34 4 1.68 4 1 C2.68 0.67 1.36 0.34 0 0 Z " fill="#0D0A0E" transform="translate(131,85)"/>
<path d="M0 0 C0.66 0.33 1.32 0.66 2 1 C0.92130607 1.96355244 -0.16318743 2.92061417 -1.25 3.875 C-1.85328125 4.40867187 -2.4565625 4.94234375 -3.078125 5.4921875 C-6.11044461 7.87120248 -8.10651396 9 -12 9 C-11.67 8.4225 -11.34 7.845 -11 7.25 C-9.72924102 4.80116138 -9.72924102 4.80116138 -10 1 C-9.34 1.33 -8.68 1.66 -8 2 C-8.33 2.66 -8.66 3.32 -9 4 C-8.34 4 -7.68 4 -7 4 C-7 3.34 -7 2.68 -7 2 C-6.01 2.33 -5.02 2.66 -4 3 C-1.80961577 1.62831762 -1.80961577 1.62831762 0 0 Z " fill="#582F62" transform="translate(114,46)"/>
<path d="M0 0 C1.45922693 0.11409593 2.91740598 0.24165544 4.375 0.375 C5.59316406 0.47941406 5.59316406 0.47941406 6.8359375 0.5859375 C9 1 9 1 11 3 C10.34 3 9.68 3 9 3 C9 3.66 9 4.32 9 5 C9.99 5.33 10.98 5.66 12 6 C11.67 6.66 11.34 7.32 11 8 C7.08043813 6.80708986 4.88373397 5.88373397 2 3 C1.34 2.67 0.68 2.34 0 2 C0 1.34 0 0.68 0 0 Z " fill="#636389" transform="translate(134,19)"/>
<path d="M0 0 C1.258125 -0.04125 2.51625 -0.0825 3.8125 -0.125 C4.52019531 -0.14820313 5.22789062 -0.17140625 5.95703125 -0.1953125 C8 0 8 0 11 2 C10.34 3.65 9.68 5.3 9 7 C7.68 6.34 6.36 5.68 5 5 C5.66 4.67 6.32 4.34 7 4 C4.525 3.01 4.525 3.01 2 2 C2 4.31 2 6.62 2 9 C1.67 9 1.34 9 1 9 C0.67 6.03 0.34 3.06 0 0 Z " fill="#2C2F2C" transform="translate(205,63)"/>
<path d="M0 0 C4.12494151 -0.05784708 8.24977944 -0.09354407 12.375 -0.125 C13.550625 -0.14175781 14.72625 -0.15851563 15.9375 -0.17578125 C17.61972656 -0.18544922 17.61972656 -0.18544922 19.3359375 -0.1953125 C20.37282715 -0.20578613 21.4097168 -0.21625977 22.47802734 -0.22705078 C25 0 25 0 27 2 C21.06 2.495 21.06 2.495 15 3 C15 2.34 15 1.68 15 1 C10.05 1 5.1 1 0 1 C0 0.67 0 0.34 0 0 Z " fill="#1F1C22" transform="translate(139,85)"/>
<path d="M0 0 C-1.60558484 1.92536938 -2.47769478 2.91074167 -4.99291992 3.34057617 C-5.73131104 3.32486572 -6.46970215 3.30915527 -7.23046875 3.29296875 C-8.03291016 3.28330078 -8.83535156 3.27363281 -9.66210938 3.26367188 C-10.49548828 3.23853516 -11.32886719 3.21339844 -12.1875 3.1875 C-13.03248047 3.17396484 -13.87746094 3.16042969 -14.74804688 3.14648438 C-16.83230384 3.11115799 -18.91623277 3.05735139 -21 3 C-21 2.34 -21 1.68 -21 1 C-18.62515638 0.83079995 -16.25016522 0.66457137 -13.875 0.5 C-13.20984375 0.45230469 -12.5446875 0.40460938 -11.859375 0.35546875 C-7.89764586 0.08358538 -3.97061445 -0.04947806 0 0 Z " fill="#0B090E" transform="translate(95,85)"/>
<path d="M0 0 C2.64 0 5.28 0 8 0 C7.67 2.97 7.34 5.94 7 9 C6.34 9 5.68 9 5 9 C5 8.34 5 7.68 5 7 C4.01 6.67 3.02 6.34 2 6 C2 4.35 2 2.7 2 1 C1.34 0.67 0.68 0.34 0 0 Z M3 2 C3 2.99 3 3.98 3 5 C3.99 4.67 4.98 4.34 6 4 C5.01 3.34 4.02 2.68 3 2 Z " fill="#201D1E" transform="translate(133,63)"/>
<path d="M0 0 C3.63 0 7.26 0 11 0 C10.67 2.31 10.34 4.62 10 7 C8.35 6.67 6.7 6.34 5 6 C5.99 5.34 6.98 4.68 8 4 C5.09399739 2.74335022 3.20395416 2 0 2 C0 1.34 0 0.68 0 0 Z " fill="#17151A" transform="translate(192,63)"/>
<path d="M0 0 C1.485 0.99 1.485 0.99 3 2 C3 3.32 3 4.64 3 6 C4.65 6.33 6.3 6.66 8 7 C7.67 8.32 7.34 9.64 7 11 C6.34 11 5.68 11 5 11 C4.34 10.34 3.68 9.68 3 9 C2.01 9.495 2.01 9.495 1 10 C0.67 6.7 0.34 3.4 0 0 Z " fill="#49345E" transform="translate(68,32)"/>
<path d="M0 0 C8.625 -0.25 8.625 -0.25 12 2 C7.46625958 3.03039555 6.35532149 3.17766075 2 1 C2 4.3 2 7.6 2 11 C1.67 11 1.34 11 1 11 C0.67 7.37 0.34 3.74 0 0 Z " fill="#181618" transform="translate(116,63)"/>
<path d="M0 0 C-2 3 -2 3 -4.1640625 3.51171875 C-4.97617188 3.56972656 -5.78828125 3.62773438 -6.625 3.6875 C-7.85089844 3.78611328 -7.85089844 3.78611328 -9.1015625 3.88671875 C-9.72804687 3.92410156 -10.35453125 3.96148437 -11 4 C-11 3.01 -11 2.02 -11 1 C-3.375 -1.125 -3.375 -1.125 0 0 Z " fill="#6A4274" transform="translate(145,41)"/>
<path d="M0 0 C0.99 0.33 1.98 0.66 3 1 C3.33 0.67 3.66 0.34 4 0 C5.98 0.99 7.96 1.98 10 3 C9.67 3.99 9.34 4.98 9 6 C5.85262818 5.30058404 2.97411124 4.23921302 0 3 C0 2.01 0 1.02 0 0 Z " fill="#5E446F" transform="translate(70,41)"/>
<path d="M0 0 C0.99 0.33 1.98 0.66 3 1 C2.67 1.66 2.34 2.32 2 3 C2.66 3.33 3.32 3.66 4 4 C2.68 4 1.36 4 0 4 C0.33 5.65 0.66 7.3 1 9 C-0.65 9 -2.3 9 -4 9 C-2.80100302 5.9168649 -1.52299523 2.93720508 0 0 Z " fill="#1F1B21" transform="translate(59,67)"/>
<path d="M0 0 C5.65611463 -0.56561146 9.22642128 1.28608722 14 4 C14 4.66 14 5.32 14 6 C9.55923552 5.48363204 6.76768727 4.34207587 3 2 C2.01 2 1.02 2 0 2 C0 1.34 0 0.68 0 0 Z " fill="#513968" transform="translate(120,38)"/>
<path d="M0 0 C0.66 0.33 1.32 0.66 2 1 C2 3.64 2 6.28 2 9 C1.01 9.33 0.02 9.66 -1 10 C-2.23076923 4.58461538 -2.23076923 4.58461538 -1.0625 1.625 C-0.5365625 0.820625 -0.5365625 0.820625 0 0 Z " fill="#63517D" transform="translate(154,30)"/>
<path d="M0 0 C0.12375 0.639375 0.2475 1.27875 0.375 1.9375 C0.58125 2.618125 0.7875 3.29875 1 4 C1.66 4.33 2.32 4.66 3 5 C1.36587557 6.70840281 0.13093906 7.93453047 -2 9 C-3.99960012 9.039992 -6.00047242 9.04346799 -8 9 C-5.82575883 6.49962266 -4.26954202 5.56371414 -1 5 C-0.67 3.35 -0.34 1.7 0 0 Z " fill="#1D1D1F" transform="translate(21,67)"/>
<path d="M0 0 C1.32 0.33 2.64 0.66 4 1 C4 2.32 4 3.64 4 5 C4.66 5.33 5.32 5.66 6 6 C4.35 6 2.7 6 1 6 C0.67 6.99 0.34 7.98 0 9 C-0.33 8.34 -0.66 7.68 -1 7 C-0.67 6.01 -0.34 5.02 0 4 C-0.66 4 -1.32 4 -2 4 C-1.34 2.68 -0.68 1.36 0 0 Z " fill="#66507F" transform="translate(119,32)"/>
<path d="M0 0 C0.99 0 1.98 0 3 0 C3 1.65 3 3.3 3 5 C3.66 5 4.32 5 5 5 C5 5.66 5 6.32 5 7 C3.02 7 1.04 7 -1 7 C-0.67 4.69 -0.34 2.38 0 0 Z " fill="#0F0F0F" transform="translate(30,69)"/>
<path d="M0 0 C1.65 0 3.3 0 5 0 C5 0.66 5 1.32 5 2 C4.34 2 3.68 2 3 2 C3 4.64 3 7.28 3 10 C2.01 9.67 1.02 9.34 0 9 C0 6.03 0 3.06 0 0 Z " fill="#141214" transform="translate(49,63)"/>
<path d="M0 0 C1.98 0 3.96 0 6 0 C6.33 0.66 6.66 1.32 7 2 C5.35 3.32 3.7 4.64 2 6 C2 5.01 2 4.02 2 3 C1.01 3 0.02 3 -1 3 C-0.67 2.01 -0.34 1.02 0 0 Z " fill="#69416E" transform="translate(98,50)"/>
<path d="M0 0 C0.763125 0.061875 1.52625 0.12375 2.3125 0.1875 C2.6425 1.1775 2.9725 2.1675 3.3125 3.1875 C0.3425 3.1875 -2.6275 3.1875 -5.6875 3.1875 C-2.6875 0.1875 -2.6875 0.1875 0 0 Z " fill="#2E2B2F" transform="translate(195.6875,81.8125)"/>
<path d="M0 0 C0.66 0 1.32 0 2 0 C2 1.32 2 2.64 2 4 C-1.3 4 -4.6 4 -8 4 C-7.67 3.34 -7.34 2.68 -7 2 C-4.69 2 -2.38 2 0 2 C0 1.34 0 0.68 0 0 Z " fill="#181718" transform="translate(201,72)"/>
<path d="M0 0 C0.33 1.32 0.66 2.64 1 4 C2.98 3.34 4.96 2.68 7 2 C6.67 3.32 6.34 4.64 6 6 C4.02 6 2.04 6 0 6 C0 4.02 0 2.04 0 0 Z " fill="#251F25" transform="translate(135,70)"/>
<path d="M0 0 C0.66 0.33 1.32 0.66 2 1 C2 3.64 2 6.28 2 9 C0.68 9 -0.64 9 -2 9 C-1.125 1.125 -1.125 1.125 0 0 Z " fill="#181519" transform="translate(179,67)"/>
<path d="M0 0 C2 1 2 1 4 4 C3.625 6.1875 3.625 6.1875 3 8 C2.34 8 1.68 8 1 8 C-0.42944945 5.64561267 -1.08661261 4.51967567 -0.625 1.75 C-0.41875 1.1725 -0.2125 0.595 0 0 Z " fill="#0B0B0B" transform="translate(76,68)"/>
<path d="M0 0 C-0.33 1.65 -0.66 3.3 -1 5 C-2.32 5 -3.64 5 -5 5 C-5.33 3.68 -5.66 2.36 -6 1 C-3 0 -3 0 0 0 Z " fill="#6A5981" transform="translate(76,31)"/>
<path d="M0 0 C2.97 0 5.94 0 9 0 C6 2 6 2 3 3 C2.34 3.99 1.68 4.98 1 6 C0.67 4.02 0.34 2.04 0 0 Z " fill="#150F16" transform="translate(11,63)"/>
<path d="M0 0 C0.33 0.66 0.66 1.32 1 2 C1.99 1.67 2.98 1.34 4 1 C3.67 2.65 3.34 4.3 3 6 C1.68 6 0.36 6 -1 6 C-0.67 4.02 -0.34 2.04 0 0 Z " fill="#53315D" transform="translate(141,44)"/>
<path d="M0 0 C0 0.33 0 0.66 0 1 C-3.3 1 -6.6 1 -10 1 C-10 0.34 -10 -0.32 -10 -1 C-6.18510326 -2.46726798 -3.70988378 -1.43336419 0 0 Z " fill="#4E4B80" transform="translate(95,26)"/>
<path d="M0 0 C-0.33 0.99 -0.66 1.98 -1 3 C-3.64 2.67 -6.28 2.34 -9 2 C-9 1.34 -9 0.68 -9 0 C-5.93109813 -1.53445094 -3.29905734 -0.54984289 0 0 Z " fill="#4E4F79" transform="translate(138,21)"/>
<path d="M0 0 C2.31 0.33 4.62 0.66 7 1 C7 1.99 7 2.98 7 4 C5.02 4 3.04 4 1 4 C0.67 2.68 0.34 1.36 0 0 Z " fill="#1A1919" transform="translate(143,72)"/>
<path d="M0 0 C2.97 0 5.94 0 9 0 C9 0.33 9 0.66 9 1 C7.02 1 5.04 1 3 1 C3 1.66 3 2.32 3 3 C1.02 3 -0.96 3 -3 3 C-2.01 2.67 -1.02 2.34 0 2 C0 1.34 0 0.68 0 0 Z " fill="#2F2A30" transform="translate(71,85)"/>
<path d="M0 0 C2.31 0 4.62 0 7 0 C7.33 1.32 7.66 2.64 8 4 C7.34 4 6.68 4 6 4 C6 3.34 6 2.68 6 2 C4.35 2 2.7 2 1 2 C0.67 1.34 0.34 0.68 0 0 Z " fill="#1F1C22" transform="translate(100,63)"/>
<path d="M0 0 C2.31 0.66 4.62 1.32 7 2 C6.34 2.66 5.68 3.32 5 4 C1.875 3.625 1.875 3.625 -1 3 C-0.67 2.01 -0.34 1.02 0 0 Z " fill="#554167" transform="translate(80,40)"/>
<path d="M0 0 C2.31 0 4.62 0 7 0 C6.67 0.99 6.34 1.98 6 3 C4.02 3 2.04 3 0 3 C0 2.01 0 1.02 0 0 Z " fill="#100F10" transform="translate(101,73)"/>
<path d="M0 0 C1.5 1.375 1.5 1.375 3 3 C3 3.66 3 4.32 3 5 C1.02 5 -0.96 5 -3 5 C-2 2 -2 2 0 0 Z " fill="#202220" transform="translate(66,71)"/>
<path d="M0 0 C0.33 0.66 0.66 1.32 1 2 C-1.12780579 4.34058637 -3.11562221 5.70700306 -6 7 C-4.60667426 3.63279613 -3.0210714 2.0140476 0 0 Z " fill="#575776" transform="translate(81,19)"/>
<path d="" fill="#555555" transform="translate(0,0)"/>
</svg>
